<?xml version="1.0" encoding="UTF-8"?>
<svg xmlns="http://www.w3.org/2000/svg" viewBox="0 0 3500 1967.79">
  <defs>
    <style>
      .cls-1 {
        fill: #d9e0ff;
      }

      .cls-1, .cls-2, .cls-3, .cls-4, .cls-5, .cls-6, .cls-7, .cls-8, .cls-9, .cls-10, .cls-11, .cls-12, .cls-13, .cls-14, .cls-15, .cls-16, .cls-17, .cls-18 {
        stroke-width: 0px;
      }

      .cls-2 {
        fill: #7fd241;
      }

      .cls-3 {
        fill: #7968e0;
      }

      .cls-4 {
        fill: #006932;
      }

      .cls-6 {
        fill: #ff5d43;
      }

      .cls-7 {
        fill: #ff3e38;
      }

      .cls-8 {
        fill: #6459ff;
      }

      .cls-9 {
        fill: #b32b00;
      }

      .cls-19 {
        fill: none;
        stroke: #1d00ad;
        stroke-miterlimit: 10;
      }

      .cls-10 {
        fill: #fff;
      }

      .cls-11 {
        fill: #c0005e;
      }

      .cls-12 {
        fill: #cacdca;
      }

      .cls-13 {
        fill: #643600;
      }

      .cls-14 {
        fill: #ffc8c8;
      }

      .cls-15 {
        fill: #7090b2;
      }

      .cls-16 {
        fill: #0c8700;
      }

      .cls-17 {
        fill: #f9d115;
      }

      .cls-18 {
        fill: #b4b4b4;
      }
    </style>
  </defs>
  <g id="Capa_4" data-name="Capa 4">
    <rect class="cls-12" x="515" y="384" width="2560" height="1440"/>
    <g id="Capa_2" data-name="Capa 2">
      <polygon class="cls-4" points="720.8 384 560 683 515 683 515 384 720.8 384"/>
      <polygon class="cls-1" points="731.47 384 697 447 776 482 816 408 764.53 384 731.47 384"/>
      <path class="cls-1" d="m688,464c27,11.33,54,22.67,81,34l-33,60c-27.67-11.67-55.33-23.33-83-35,11.67-19.67,23.33-39.33,35-59Z"/>
      <path class="cls-1" d="m650,531l-28,53c27,10.33,54,20.67,81,31,10-17.33,20-34.67,30-52l-83-32Z"/>
      <polygon class="cls-1" points="617.9 590.51 566.84 683 666 688 700 623 617.9 590.51"/>
      <polygon class="cls-1" points="782.67 384 870 428 893.24 384 782.67 384"/>
      <polygon class="cls-1" points="822 410 783 484 827 504 866 435 822 410"/>
      <path class="cls-1" d="m774,501l-30.8,57c14.93,6.33,29.87,12.67,44.8,19,10.67-19,21.33-38,32-57-15.33-6.33-30.67-12.67-46-19Z"/>
      <polygon class="cls-1" points="740 565 711 618.6 754 634 784 582 740 565"/>
      <path class="cls-1" d="m708,624l-36,67c16.33.67,32.67,1.33,49,2,10-17.33,20-34.67,30-52-14.33-5.67-28.67-11.33-43-17Z"/>
      <polygon class="cls-1" points="758 643 730 696 813 700 827 669 758 643"/>
      <polygon class="cls-1" points="791 584 761 637 829 664 857 611 791 584"/>
      <path class="cls-1" d="m824.5,521.53l-29.03,55.47,65.53,26c9-17.33,18-34.67,27-52-21.17-9.82-42.33-19.64-63.5-29.47Z"/>
      <polygon class="cls-1" points="872 437 835 507 895 534 931 466 872 437"/>
      <polygon class="cls-1" points="903.56 384 877 430 933.42 457 969.33 384 903.56 384"/>
      <polygon class="cls-1" points="977.87 384 941 461 1014 498 1051 426 977.87 384"/>
      <polygon class="cls-1" points="937 467 904.62 534 981 568 1012 507 937 467"/>
      <polygon class="cls-1" points="902 541 869.07 603 945 635 978 575 902 541"/>
      <polygon class="cls-1" points="866 614 821 704 913 710 944.44 643 866 614"/>
      <polygon class="cls-1" points="985 577 958.31 635 1004 656 1061 611 985 577"/>
      <polygon class="cls-4" points="950 645 919 712 962 728 986 659 950 645"/>
      <polygon class="cls-4" points="994.22 384 1099.47 441 1141.42 384 994.22 384"/>
      <polygon class="cls-4" points="515 700 709 716 572 911 515 860.2 515 700"/>
      <polygon class="cls-4" points="960 753 919 954.07 1085 1021 1181 855 1165 828 960 753"/>
      <polygon class="cls-4" points="1389 645 1382 690 1466 719 1490 656 1472 650 1444 627 1421.6 627 1389 645"/>
      <polygon class="cls-4" points="1515 608 1490 592.2 1469.6 592.2 1451 604 1451 622.6 1470 641 1490 646.6 1496 619.4 1515 608"/>
      <polygon class="cls-4" points="1406 483 1417 459 1440 477 1427 489 1406 483"/>
      <polygon class="cls-4" points="1446 484 1429 493 1440 542.33 1469 583 1490 585 1515 604.2 1528 586 1530.93 544.1 1446 484"/>
      <polygon class="cls-4" points="1537 548 1561 566 1527.73 604.2 1527.73 622.87 1515 619.4 1524 604.2 1530.93 589.8 1537 548"/>
      <circle class="cls-4" cx="1512" cy="633" r="10"/>
      <polygon class="cls-4" points="1570 569 1530.93 609 1530.93 638.33 1512 652.73 1486.13 719 1610 772 1677 635 1570 569"/>
      <polygon class="cls-4" points="1683 637 1616.8 772 1731 797 1802 704 1683 637"/>
      <polygon class="cls-4" points="1746 523 1698 609 1703.73 609 1750 529.53 1746 523"/>
      <polygon class="cls-4" points="2069 648 1986 779 1971 787 1816 700 1875 644 1933 625 2069 648"/>
      <polygon class="cls-4" points="1704 384 1761 437 1826 486 1906 535 2036 595 2093 629 2190 679 2254 717 2234 693 2101 620 1996.8 550.5 1890 488 1828 464 1772 427 1716.8 384 1704 384"/>
      <polygon class="cls-4" points="2082.4 384 2138 434 2179 448 2111.2 384 2082.4 384"/>
      <polygon class="cls-4" points="1734 806 1587 938 1626 995 1795 833 1734 806"/>
      <polygon class="cls-4" points="1802 835.13 1841 848 1841 861.8 1867 890 1848 914 1810 908 1789.07 914 1774 961 1647 999 1641 992 1802 835.13"/>
      <polygon class="cls-4" points="1849 851 1925 883 1879 976 1791 1058 1791 1044.2 1813 989 1783 967 1783 945.53 1798.13 917.07 1837.07 917.07 1862 925 1878 887 1854 862.87 1849 851"/>
      <polygon class="cls-4" points="1934 885 1911 931 1956.53 983.89 2027 943 2024 920 1934 885"/>
      <polygon class="cls-4" points="2129.87 885 2091 919 2097.33 934.45 2167.73 934.45 2167.73 909.72 2129.87 885"/>
      <path class="cls-4" d="m1939,1032l-81,115,60,51,67,47,32-43,16-47,52,16,30-30-2-47-8-16,24.37-30.6,12.63-27.4v-24.87l-9-22.13-63.93-38.55-91.73,49.45,61.67,6.11c14.33,17.67,28.67,35.33,43,53-8.33,13.67-16.67,27.33-25,41-39.33-17.33-78.67-34.67-118-52Z"/>
      <polygon class="cls-4" points="2159 996 2159 1029.8 2142 1055.93 2146 1076 2180.53 1104 2224.8 1050 2159 996"/>
      <polygon class="cls-4" points="2160 948 2153 968 2160 988.2 2198 1017 2241 970 2202 952 2160 948"/>
      <polygon class="cls-4" points="2176 912 2176 937.53 2213 943 2314 1000 2317.07 996 2176 912"/>
      <path class="cls-4" d="m2111,764l-38,80,347,206c12.33-12.33,24.67-24.67,37-37-15.81-34.25-37.69-74.6-68-117-32.83-45.93-66.7-81.87-95.93-109-8.02,11.33-16.04,22.67-24.07,34-23.67-13-47.33-26-71-39l-12,21-75-39Z"/>
      <polygon class="cls-4" points="1809 1206 1772 1262 1703 1195 1651.2 1195 1730.1 1130.6 1809 1206"/>
      <polygon class="cls-4" points="1664 1203 1694.4 1203 1655 1291 1629 1275 1674 1217 1664 1203"/>
      <polygon class="cls-4" points="2227 1492 2166 1544 2166 1640.47 2177 1645 2246.67 1645 2235 1502 2227 1492"/>
      <path class="cls-4" d="m3075,1545l-30-22-84,119-18,4-20-18-14,11-11,16v18l7,6,7,7v20l28,27,5-20,19,27c8.12,5.36,28.73,17.22,50,11,17.39-5.08,27.28-19.93,42-42,9.37-14.06,15.37-26.66,19-35.2v-128.8Z"/>
      <polygon class="cls-4" points="2856 1606 2898 1606 2914 1623 2892 1646 2889 1672 2856 1672 2856 1606"/>
      <polygon class="cls-4" points="2680 1259 2662 1306 2662 1350.33 2699 1269 2680 1259"/>
      <polygon class="cls-4" points="2637 1254 2651.47 1254 2637 1304.67 2637 1366.33 2631 1421 2600.27 1421 2579 1409 2601 1322 2637 1254"/>
      <polygon class="cls-4" points="2598 1428 2621.6 1428 2621.6 1459.13 2598 1499.67 2598 1428"/>
      <polygon class="cls-4" points="2662 1359.93 2657 1438 2657 1499.67 2651.47 1516.73 2647 1613 2654.5 1692.73 2667.47 1824 2674.93 1824 2674.93 1787.67 2667 1687 2660.97 1606 2662 1512.47 2662 1489 2666 1368 2662 1359.93"/>
      <polygon class="cls-4" points="2640.8 1463.83 2640.8 1539.13 2635 1567 2640.8 1694.87 2651.47 1824 2609.8 1824 2609.8 1709.8 2605 1621 2605 1527.4 2615.23 1499.67 2640.8 1463.83"/>
      <polygon class="cls-1" points="1019.47 511 994.22 568 1067.82 603 1104 550 1019.47 511"/>
      <polygon class="cls-1" points="1061 433 1023.73 501 1108 541 1148.53 487 1061 433"/>
      <polygon class="cls-1" points="1148.53 384 1109.07 441 1158.13 482 1202.93 420.5 1148.53 384"/>
      <polygon class="cls-1" points="1167.73 384 1202.93 412.5 1232.8 384 1167.73 384"/>
      <polygon class="cls-1" points="1211.47 428 1167.73 487 1225.33 541 1286.13 482 1211.47 428"/>
      <polygon class="cls-1" points="1156 498 1076 603 1134.67 634 1148.53 588 1186.93 521.53 1156 498"/>
      <polygon class="cls-1" points="1067.82 614 1076 616.5 1051 673.8 1012 662 1067.82 614"/>
      <polygon class="cls-1" points="994.22 662 969.33 728 1018 749 1049.11 682.6 994.22 662"/>
      <polygon class="cls-1" points="1056.8 686.5 1044 725 1023.73 753 1076 773 1104 705.5 1056.8 686.5"/>
      <polygon class="cls-1" points="1112.8 705.5 1086.13 776.2 1141.42 797.8 1167.73 729.75 1112.8 705.5"/>
      <path class="cls-1" d="m1081,619c-7.33,19-14.67,38-22,57,16.69,6.73,33.38,13.47,50.07,20.2l17.87-56c-15.31-7.07-30.62-14.13-45.93-21.2Z"/>
      <polygon class="cls-1" points="1136.8 643.9 1192 668 1174 719 1117.6 696.2 1136.8 643.9"/>
      <polygon class="cls-1" points="1192 529 1156 593 1144.8 635 1195.2 662 1213.6 614 1238 572 1192 529"/>
      <polygon class="cls-1" points="1245.6 384 1219.2 420.5 1290 475 1357.6 412.5 1320.8 384 1245.6 384"/>
      <polygon class="cls-1" points="1340 384 1357.6 398.25 1372 384 1340 384"/>
      <polygon class="cls-1" points="1364 412.5 1301 479 1332.5 502.6 1391.2 511 1394.4 489 1411 455 1364 412.5"/>
      <polygon class="cls-1" points="1382 384 1372 398.25 1415 444 1423 433 1417.6 412.5 1440 384 1382 384"/>
      <polygon class="cls-1" points="1292.8 487 1233 549 1292.8 614 1324.8 566 1328.8 511 1292.8 487"/>
      <polygon class="cls-1" points="1340 511 1336 566 1387 571 1391 519 1340 511"/>
      <polygon class="cls-1" points="1328.8 571 1301 616.5 1356 677.8 1372 686.5 1382 643.9 1382 580.2 1328.8 571"/>
      <polygon class="cls-1" points="1238 577 1202.93 662 1254.4 686.5 1286.13 622.6 1238 577"/>
      <polygon class="cls-1" points="1292.8 634 1268 692 1318 712 1348.8 686.5 1292.8 634"/>
      <polygon class="cls-1" points="1202.93 673 1186.93 723.4 1226.93 744.2 1254.4 696.2 1202.93 673"/>
      <polygon class="cls-1" points="1176 729.75 1148.53 797.8 1198 819 1226.93 753 1176 729.75"/>
      <polygon class="cls-1" points="1263 702 1316 719 1289.5 761.8 1244.53 744.2 1263 702"/>
      <polygon class="cls-1" points="1244.53 753 1286.13 768.2 1258 803 1248 825 1212 825 1244.53 753"/>
      <polygon class="cls-1" points="1402.4 489 1419 493 1429 548 1460.8 585.43 1445.6 595.5 1444 619 1423 619 1391 637 1395.2 566 1402.4 489"/>
      <polygon class="cls-1" points="1356 689.8 1411 716.2 1328.8 825 1258.4 825 1258.4 811.4 1356 689.8"/>
      <polygon class="cls-1" points="1417.6 719 1472 729.75 1444.8 825 1341.5 825 1417.6 719"/>
      <polygon class="cls-1" points="1445.6 384 1429 428 1486.13 428 1490 384 1445.6 384"/>
      <polygon class="cls-1" points="1423 440.2 1423 449.8 1483 498 1512 461.75 1490 433 1423 440.2"/>
      <polygon class="cls-1" points="1515 465.5 1493.6 498 1556.8 548 1561 535.4 1558 529 1538 465.5 1515 465.5"/>
      <polygon class="cls-1" points="1547 423 1547 459 1566 529 1610 455 1581.57 428 1547 423"/>
      <polygon class="cls-1" points="1540.8 398.25 1547 412.5 1584.8 414 1616.8 444 1658.4 384 1554.4 384 1540.8 391.12 1540.8 398.25"/>
      <path class="cls-1" d="m1501.6,384l-7.6,11v33l22,30h22c1.7-3.72,11.24-25.58,1-49-6.08-13.91-16.22-21.71-21.13-25h-16.27Z"/>
      <polygon class="cls-1" points="1570 535 1561 554.6 1677 622.87 1684.8 614 1680 604.2 1671 555 1634.4 529 1585.6 544.1 1570 535"/>
      <polygon class="cls-1" points="1645 418 1578.5 529 1629.6 523 1677 444 1645 418"/>
      <polygon class="cls-1" points="1681 450 1640 523 1677 548 1712.8 476 1681 450"/>
      <polygon class="cls-1" points="1498 647 1508 647 1479.97 717 1472 717 1498 647"/>
      <polygon class="cls-1" points="1717.6 484 1681 554 1684.8 597.8 1691.2 604.2 1750 512.2 1717.6 484"/>
      <path class="cls-1" d="m1665.6,384l-18.4,30,108,92.75v12.65l4.8,3.6-50.6,96.4-19,5.6,119.6,70,62-58,62-19,135,22.2,127,65.8,96,73,48,45,58,72,40.4,60,29.6,54,3-4-33.4-58-28.6-55-50-70c-10-12.67-20-25.33-30-38-24.67-18-49.33-36-74-54-16.2-8.33-32.4-16.67-48.6-25-57.8-33.67-115.6-67.33-173.4-101-34.67-15.33-69.33-30.67-104-46-54-34.33-108-68.67-162-103-24.73-24-49.47-48-74.2-72h-27.2Z"/>
      <path class="cls-1" d="m2547,1094c-22.18-22.13-38.61-41.84-49-55l-70-154,83,79c61,48.67,122,97.33,183,146-26.22,40.7-52.53,43.61-59,44-25.75,1.55-46.85-18.94-88-60Z"/>
      <path class="cls-1" d="m1750,384h309.1l70.27,60,38.37,19.4h29.27l34.2,35.6,75.2,67,387.6,240c12.25,7.45,35.55,23.99,52,54,26.22,47.81,15.98,94.99,13,107-17,40.91-34,81.82-51,122.72l-190.4-155.28-102.6-114.45-133-94-6-29-382-235-46.8-12-97.2-66Z"/>
      <polygon class="cls-1" points="2153.6 384 2213 442 2300 434 2235 403 2226.8 384 2153.6 384"/>
      <path class="cls-1" d="m2232,459l126-8,29.2,8h32l152.8,45,120,77,71.48,31.2,220.52-9.2,91,53.2v776l-34,53.8-231-178v-17l-13-11c-1-3.67-2-7.33-3-11-14.67-10.33-29.33-20.67-44-31-7.36-6.7-15.21-15.85-21-28-22-46.19,5.11-95.22,9-102,78.23-142.31,57.2-224.29,42-260-31.41-73.78-119.94-121.86-297-218-33.85-18.38-89.97-47.45-161-99-39.19-28.45-69.8-54.22-90-72Z"/>
      <polygon class="cls-1" points="2343.2 384 2434 407 2434 384 2343.2 384"/>
      <polygon class="cls-1" points="2457 384 2452 413 2606 462 2777 565 2986 556 3080 603 3075 384 2457 384"/>
      <polygon class="cls-1" points="714.4 719 799 723 727 789 690.93 754 714.4 719"/>
      <polygon class="cls-1" points="812 724 733 792 772.5 827.67 896 733 812 724"/>
      <polygon class="cls-1" points="911 735 857 775.83 889 812 952.5 754 911 735"/>
      <polygon class="cls-1" points="944.44 775.83 931 854 896 814.92 944.44 775.83"/>
      <polygon class="cls-1" points="846 781 879.2 814.92 821 868.73 782 835 846 781"/>
      <polygon class="cls-1" points="886.67 824.87 827 876.2 868 911 926 860 886.67 824.87"/>
      <polygon class="cls-1" points="926 867.93 879 918 911 949 926 867.93"/>
      <polygon class="cls-1" points="685 762 649.33 814.92 716 872 766 833 685 762"/>
      <polygon class="cls-1" points="773 841 725 877 769 914 814.5 877.5 773 841"/>
      <polygon class="cls-1" points="819 883 778 920 823 953 861 922 819 883"/>
      <polygon class="cls-1" points="867 924 833 958 874 994 906.93 959 867 924"/>
      <polygon class="cls-1" points="914.93 959 879.2 999.4 939 1047 965.07 983.89 914.93 959"/>
      <polygon class="cls-1" points="979 990 946 1054 1030 1119 1077 1029 979 990"/>
      <polygon class="cls-1" points="1201 841 1193.33 854 1266 906 1318.13 841 1201 841"/>
      <polygon class="cls-1" points="1193.33 863.93 1155 932 1212 973.8 1261.07 911 1193.33 863.93"/>
      <polygon class="cls-1" points="1149 938 1120 986 1171 1031 1208.03 983.89 1149 938"/>
      <polygon class="cls-1" points="1114.93 994 1077 1057 1120 1102.33 1164.02 1041.53 1114.93 994"/>
      <polygon class="cls-1" points="1072 1068 1036 1127 1072 1167.93 1117 1107 1072 1068"/>
      <polygon class="cls-1" points="1327 836 1274 910 1354.93 973.8 1439.73 836 1327 836"/>
      <path class="cls-1" d="m1448.27,836l-85.27,142,90,63,113-95c-15.41-23.42-38.76-52.83-73-80-15.57-12.36-30.79-22.18-44.73-30Z"/>
      <polygon class="cls-1" points="1267.47 918.87 1224 981 1298 1034 1352 979 1267.47 918.87"/>
      <polygon class="cls-1" points="1356.87 984.5 1305 1036 1389 1099 1446.67 1048.17 1356.87 984.5"/>
      <polygon class="cls-1" points="1217.87 990 1181 1038.33 1242 1094 1290.93 1041 1217.87 990"/>
      <polygon class="cls-1" points="1299 1044 1253.6 1102.33 1326 1156 1381.07 1104 1299 1044"/>
      <polygon class="cls-1" points="1174.67 1048.17 1131.47 1104 1188 1156 1235.97 1104 1174.67 1048.17"/>
      <polygon class="cls-1" points="1244 1110 1195 1164 1253.6 1219.13 1319.73 1164.57 1244 1110"/>
      <polygon class="cls-1" points="1125 1114 1080 1174 1125 1217 1177.87 1164.57 1125 1114"/>
      <polygon class="cls-1" points="1183.72 1171.13 1136 1223 1192 1275 1249.87 1223.07 1183.72 1171.13"/>
      <polygon class="cls-1" points="1482 733 1455.73 825 1496 853 1549 763 1482 733"/>
      <polygon class="cls-1" points="1558 766 1538.4 797 1571 841 1603 780 1558 766"/>
      <polygon class="cls-1" points="1533 810 1505 858 1533 894.33 1566 851 1533 810"/>
      <polygon class="cls-1" points="1611 784 1581.57 847.4 1622.67 894.33 1719.2 810 1611 784"/>
      <polygon class="cls-1" points="1570.7 856.47 1543 898 1570.7 938.5 1616.8 897.48 1570.7 856.47"/>
      <polygon class="cls-1" points="1810 709 1743.73 797 2056 923 2120 882 1810 709"/>
      <path class="cls-1" d="m2073,650.07l-87,141.93,78.8,43.13,47.2-86.13,80.74,42.21,5.26-9.21,71,39,24.07-34c-29.14-24.08-63.75-49.82-104.07-75-41.43-25.88-80.78-46.1-116-61.93Z"/>
      <polygon class="cls-1" points="2457 1019.54 2435 1043 2483 1069 2457 1019.54"/>
      <polygon class="cls-1" points="2428 1050 2424 1054 2466 1085 2475 1075 2428 1050"/>
      <polygon class="cls-1" points="2480 1033 2509 1093 2520.27 1093 2571 1126 2480 1033"/>
      <path class="cls-1" d="m2483,1079.5l-8,10.22,189,125.28v-9.2c-53.33-34.27-106.67-68.53-160-102.8-7-7.83-14-15.67-21-23.5Z"/>
      <path class="cls-1" d="m2684,1147.25l-16,49.75-43.73-24.88c4.96,1.49,11.8,2.77,19.73,1.88,24.17-2.72,37.73-23.2,40-26.75Z"/>
      <polygon class="cls-1" points="2699 1186.07 2694 1212.73 2718 1232 2699 1186.07"/>
      <path class="cls-1" d="m2690,1220v8.73l108,71.27-9-9c-28.07-18.03-56.5-37.95-85-60-4.73-3.66-9.39-7.32-14-11Z"/>
      <polygon class="cls-1" points="1257.37 1233 1202 1283 1249.87 1321 1305 1275 1257.37 1233"/>
      <polygon class="cls-1" points="1331.2 1171.13 1267 1227 1311 1269 1381.07 1209 1331.2 1171.13"/>
      <polygon class="cls-1" points="1394.4 1114 1340.8 1164.57 1387.2 1203 1446.67 1150.6 1394.4 1114"/>
      <polygon class="cls-1" points="1456 1058 1400.8 1110 1446.67 1141.8 1506.4 1089.72 1456 1058"/>
      <polygon class="cls-1" points="1500 1021 1468.8 1048.17 1512 1085 1548.8 1058 1500 1021"/>
      <polygon class="cls-1" points="1572 954.5 1508.8 1010 1556.8 1048.17 1614.4 1001.33 1572 954.5"/>
      <polygon class="cls-1" points="1622.4 1010 1566 1054.5 1616.8 1094 1661.7 1054.5 1622.4 1010"/>
      <polygon class="cls-1" points="1670.4 1068 1629 1102.08 1682 1145 1724.8 1117.97 1670.4 1068"/>
      <polygon class="cls-1" points="1558 1063 1520.8 1089.72 1573.6 1130.6 1608.8 1104 1558 1063"/>
      <polygon class="cls-1" points="1616.8 1110 1587 1137 1641 1181 1676.9 1145.5 1616.8 1110"/>
      <polygon class="cls-1" points="1512.8 1096.8 1459.2 1145.5 1512.8 1189 1566 1138.6 1512.8 1096.8"/>
      <polygon class="cls-1" points="1579.9 1141.8 1520.8 1193.8 1579.9 1233 1631.95 1189 1579.9 1141.8"/>
      <polygon class="cls-1" points="1453.6 1156 1397.6 1203 1453.6 1247 1506.4 1196.2 1453.6 1156"/>
      <polygon class="cls-1" points="1512.6 1203 1464.5 1251.4 1516.8 1291 1553 1259 1562 1257 1571 1241 1512.6 1203"/>
      <polygon class="cls-1" points="1388 1213 1317.33 1275 1375.83 1325 1446.67 1253.8 1388 1213"/>
      <polygon class="cls-1" points="1453.6 1260.2 1382 1329 1423 1369 1512.6 1297.8 1453.6 1260.2"/>
      <polygon class="cls-1" points="1562 1264 1525 1297 1543.5 1311.4 1562 1264"/>
      <polygon class="cls-1" points="1647.2 1196.3 1661.7 1209.8 1624 1269 1591.2 1247 1647.2 1196.3"/>
      <polygon class="cls-1" points="1765.6 973.8 1730.1 1094 1719.2 1094 1641 1010 1650.38 1001.33 1765.6 973.8"/>
      <polygon class="cls-1" points="1777.6 973.8 1798 989 1783 1041 1783 1058 1754 1085 1743.73 1082.6 1777.6 973.8"/>
      <polygon class="cls-1" points="1841.6 1021 1858 1037.8 1738 1115 1730.1 1104 1750 1100.2 1794.05 1068 1841.6 1021"/>
      <polygon class="cls-1" points="1905.6 938.5 1880.8 983.89 1848 1014 1867 1033.9 1949.6 986.2 1905.6 938.5"/>
      <polygon class="cls-1" points="1949.6 1001.33 1904.8 1068 1876.8 1041 1949.6 1001.33"/>
      <polygon class="cls-1" points="1867 1048.17 1892 1073 1858 1130.6 1809 1085 1867 1048.17"/>
      <polygon class="cls-1" points="1795 1096.8 1743.73 1121.8 1814.4 1189 1848 1141.8 1795 1096.8"/>
      <polygon class="cls-1" points="1854 1156.2 1823.2 1203 1874 1251 1911 1203.6 1854 1156.2"/>
      <polygon class="cls-1" points="1965.6 996 1939 1032 2057 1084 2082 1043 2039 990 1977.33 983.89 1965.6 996"/>
      <polygon class="cls-1" points="2134.4 1084 2124 1096.8 2124 1131 2167.73 1176.2 2205 1137 2134.4 1084"/>
      <polygon class="cls-1" points="2114.4 948 2147.2 948 2147 976 2114.4 948"/>
      <polygon class="cls-1" points="2115 1141 2164.5 1189 2114.4 1237.8 2027 1167.4 2033 1155 2085 1171 2115 1141"/>
      <polygon class="cls-1" points="2030 1183 2023 1208 2000 1245 2052 1302 2100.8 1245 2030 1183"/>
      <polygon class="cls-1" points="1918 1209 1881 1255 1931.87 1305 1980 1251 1918 1209"/>
      <polygon class="cls-1" points="1989.6 1257 1935 1310 1994 1367 2046.4 1312 1989.6 1257"/>
      <polygon class="cls-1" points="2246.53 976 2205 1019.54 2261.6 1067.5 2310.4 1010 2246.53 976"/>
      <polygon class="cls-1" points="2232 1055 2188 1107 2210 1126 2256.74 1072.2 2232 1055"/>
      <polygon class="cls-1" points="2317.07 1017 2269.6 1069 2338 1122 2398 1062 2317.07 1017"/>
      <polygon class="cls-1" points="2265 1079.5 2222.37 1130.1 2276.8 1183 2333.8 1130.1 2265 1079.5"/>
      <polygon class="cls-1" points="2209.6 1147.25 2176 1183 2224.8 1233.8 2269.6 1190.52 2209.6 1147.25"/>
      <polygon class="cls-1" points="2416.8 1069.5 2349.6 1130.1 2398 1161.8 2457 1097.8 2416.8 1069.5"/>
      <polygon class="cls-1" points="2343 1135 2290.4 1189.4 2343 1229.8 2393 1171 2343 1135"/>
      <polygon class="cls-1" points="2278.08 1198.6 2236.8 1242.5 2290.4 1295.4 2337.6 1242.5 2278.08 1198.6"/>
      <polygon class="cls-1" points="2168 1195 2120.8 1247 2168 1302 2217.6 1242.5 2168 1195"/>
      <polygon class="cls-1" points="2108 1257 2059.1 1307.4 2108 1361.8 2160.8 1305 2108 1257"/>
      <polygon class="cls-1" points="2050.4 1317 2000 1373 2050.4 1428.2 2100.8 1369.8 2050.4 1317"/>
      <polygon class="cls-1" points="1703.3 1209 1661.7 1291 1724.8 1341.8 1765.6 1269 1703.3 1209"/>
      <polygon class="cls-1" points="1813.6 1209 1777.6 1269 1819.2 1311.4 1867.1 1260.2 1813.6 1209"/>
      <polygon class="cls-1" points="1770.87 1275.4 1730.1 1348.2 1762 1383 1815 1321 1770.87 1275.4"/>
      <polygon class="cls-1" points="1583.2 1251 1554 1319 1614.4 1361 1651.2 1296.2 1583.2 1251"/>
      <polygon class="cls-1" points="1654.4 1305 1626.45 1365.8 1681 1408 1719 1346 1654.4 1305"/>
      <polygon class="cls-1" points="1724.8 1353 1690 1412 1737 1450 1758 1391 1724.8 1353"/>
      <polygon class="cls-1" points="2464.8 1104 2407 1168 2464.8 1209.03 2525.5 1139.4 2464.8 1104"/>
      <polygon class="cls-1" points="2533.6 1147.25 2477.6 1220 2552 1268 2588 1186.07 2533.6 1147.25"/>
      <polygon class="cls-1" points="2598 1186.07 2561 1273 2598 1300 2642.4 1220 2598 1186.07"/>
      <polygon class="cls-1" points="2660.97 1226.6 2651.47 1254 2637 1254 2651.47 1226.6 2660.97 1226.6"/>
      <polygon class="cls-1" points="2680 1259 2690 1240.3 2703.2 1254 2699 1269 2680 1259"/>
      <polygon class="cls-1" points="2715.2 1260 2674.93 1357 2674.93 1421 2752 1417 2752 1399.4 2794 1313 2715.2 1260"/>
      <polygon class="cls-1" points="2798 1318.6 2762 1405 2791.2 1405 2842 1468 2888 1393.3 2798 1318.6"/>
      <polygon class="cls-1" points="2898 1397.8 2856 1474.6 2856 1509.8 2930.4 1509.8 2956 1444 2898 1397.8"/>
      <polygon class="cls-1" points="2964 1453.8 2942.4 1509.8 3018 1515 3024 1509.8 2975 1474 2972.8 1453.8 2964 1453.8"/>
      <polygon class="cls-1" points="3057 1510 3054.4 1515 3075 1533 3075 1523 3057 1510"/>
      <polygon class="cls-1" points="2985 1457 2982 1462 3031 1501 3036 1494 2985 1457"/>
      <rect class="cls-1" x="3038" y="1498" width="3" height="9" transform="translate(1558.87 -1547.71) rotate(37.8)"/>
      <rect class="cls-1" x="3048" y="1505" width="3" height="10" transform="translate(1286.71 -1400.69) rotate(32.46)"/>
      <polygon class="cls-1" points="3031 1512 3024.98 1521.5 3035 1525 3042 1520 3031 1512"/>
      <polygon class="cls-1" points="3021 1526 3011 1541 3020 1546 3030 1531 3021 1526"/>
      <polygon class="cls-1" points="3006.67 1546 3014 1550 2959 1635 2951.2 1637.88 2951.2 1630.33 3006.67 1546"/>
      <polygon class="cls-1" points="3011 1525 2947 1626 2933.6 1626 2906 1603.13 2938.4 1521.5 3011 1525"/>
      <polygon class="cls-1" points="2853 1518 2853 1598.33 2898 1598.33 2929.33 1521.5 2853 1518"/>
      <polygon class="cls-1" points="2762 1414.87 2762 1507.13 2842.93 1509.8 2842.93 1479 2835 1476 2787.47 1414.87 2762 1414.87"/>
      <polygon class="cls-1" points="2762 1518 2764.53 1598.33 2847.2 1598.33 2847.2 1518 2762 1518"/>
      <polygon class="cls-1" points="2770.4 1606 2770.4 1639 2856 1637.88 2856 1606 2770.4 1606"/>
      <polygon class="cls-1" points="2770.4 1650.07 2770.4 1681 2856 1672 2856 1646.87 2770.4 1650.07"/>
      <polygon class="cls-1" points="2678 1431 2750 1423 2750 1507.13 2674.93 1509.8 2678 1431"/>
      <polygon class="cls-1" points="2753.87 1518 2756 1598.33 2674.93 1604.2 2674.93 1520.47 2753.87 1518"/>
      <polygon class="cls-1" points="2762 1607.93 2762 1681 2683 1689 2678 1613 2762 1607.93"/>
      <polygon class="cls-1" points="2682 1697 2762 1693 2762 1779.4 2686 1787 2682 1697"/>
      <polygon class="cls-1" points="2773.6 1693 2853 1684.2 2853 1765 2774 1777 2774 1698 2773.6 1693"/>
      <polygon class="cls-1" points="2860.53 1681 2863 1763 2941 1757 2941 1740 2911 1725 2900.77 1706.07 2898 1684.2 2860.53 1681"/>
      <polygon class="cls-1" points="2687 1794 2687 1824 2766.67 1824 2766.67 1787 2687 1794"/>
      <polygon class="cls-1" points="2853 1774.33 2773.6 1784.47 2775.73 1824 2853 1824 2853 1774.33"/>
      <polygon class="cls-1" points="2862.67 1774.33 2941 1767.93 2941 1824 2862.67 1824 2862.67 1774.33"/>
      <path class="cls-1" d="m2949.6,1730.6v32.4l45.4-4c-5.18-.28-17.15-1.62-29-10-9-6.36-13.97-13.98-16.4-18.4Z"/>
      <polygon class="cls-1" points="2951.2 1767.93 2995 1767.93 3035 1794 3037.07 1824 2951.2 1824 2951.2 1767.93"/>
      <polygon class="cls-1" points="3011 1763 3031 1756 3037.07 1786.6 3011 1763"/>
      <polygon class="cls-1" points="3075 1690.6 3037.07 1746.8 3037.07 1756 3075 1752.76 3075 1690.6"/>
      <rect class="cls-1" x="3040.8" y="1763" width="34.2" height="61"/>
      <polygon class="cls-1" points="2403.3 1175.93 2353 1236 2407 1281 2460.53 1215 2403.3 1175.93"/>
      <polygon class="cls-1" points="2470 1225 2418 1288 2511 1360 2548 1281 2470 1225"/>
      <polygon class="cls-1" points="2559 1286 2519 1367 2572 1406 2598 1310.33 2559 1286"/>
      <polygon class="cls-1" points="2514 1378 2505 1506 2588 1506 2588 1428 2514 1378"/>
      <polygon class="cls-1" points="2502 1517 2502 1626.07 2593 1617 2590.67 1517 2502 1517"/>
      <polygon class="cls-1" points="2505 1635 2593 1626.07 2593 1695.4 2508 1700 2505 1637.8 2505 1635"/>
      <polygon class="cls-1" points="2511 1719 2513 1799 2599 1794 2597 1712 2511 1719"/>
      <polygon class="cls-1" points="2599 1802.07 2599 1824 2434.4 1824 2434.4 1813.03 2599 1802.07"/>
      <polygon class="cls-1" points="2502 1719.93 2502 1802.07 2434.4 1802.07 2427 1726 2502 1719.93"/>
      <path class="cls-1" d="m2499,1635c.33,22.67.67,45.33,1,68-25.33,1.67-50.67,3.33-76,5l-3-68c26-1.67,52-3.33,78-5Z"/>
      <polygon class="cls-1" points="2385 1514 2493.07 1514 2496 1626 2421 1632.47 2413 1537 2385 1514"/>
      <polygon class="cls-1" points="2469.07 1346 2413 1413 2496 1493.8 2496 1425.53 2508 1372 2469.07 1346"/>
      <polygon class="cls-1" points="2404 1421 2350 1477 2379.47 1506 2493.6 1506 2404 1421"/>
      <polygon class="cls-1" points="2410.4 1300 2359.2 1360 2406.77 1406 2465 1341 2410.4 1300"/>
      <polygon class="cls-1" points="2344.27 1247 2297.87 1302 2350 1353 2401 1290 2344.27 1247"/>
      <polygon class="cls-1" points="2350 1371.67 2297.87 1428.2 2341.7 1471.93 2401 1415.93 2350 1371.67"/>
      <polygon class="cls-1" points="2287.2 1309.4 2236.8 1371.67 2287.2 1421.8 2341.7 1361.8 2287.2 1309.4"/>
      <polygon class="cls-1" points="2224.8 1257 2176 1309.4 2232 1361.8 2282.4 1302 2224.8 1257"/>
      <polygon class="cls-1" points="2306 1451 2318.67 1506 2365.6 1506 2306 1451"/>
      <polygon class="cls-1" points="2319.73 1517 2335.8 1635 2412.1 1632.47 2401 1538.07 2372 1517 2319.73 1517"/>
      <polygon class="cls-1" points="2337.6 1645 2341.7 1712 2418 1712 2413 1643.92 2337.6 1645"/>
      <polygon class="cls-1" points="2349.43 1731.13 2418 1725.8 2421 1802.07 2353 1813.03 2349.43 1731.13"/>
      <rect class="cls-1" x="2359.2" y="1817.53" width="61.8" height="10.67"/>
      <polygon class="cls-1" points="2289.25 1434.6 2306 1506 2241.87 1514 2241.87 1493.8 2236.8 1486 2289.25 1434.6"/>
      <polygon class="cls-1" points="2246.67 1517 2306 1517 2319.73 1643.92 2257.87 1643.92 2246.67 1517"/>
      <polygon class="cls-1" points="2256 1651 2322.4 1651 2326.13 1712 2265.33 1712 2256 1651"/>
      <polygon class="cls-1" points="2271 1734 2329 1731 2337.6 1813.03 2273.33 1813.03 2271 1734"/>
      <rect class="cls-1" x="2273.33" y="1817.53" width="64.27" height="6.47"/>
      <polygon class="cls-1" points="2232 1375.4 2282.4 1425.53 2229.2 1480.47 2179 1435 2232 1375.4"/>
      <polygon class="cls-1" points="2170.93 1317 2225 1368 2173.6 1427.93 2120.8 1372.6 2170.93 1317"/>
      <polygon class="cls-1" points="2172.9 1438.87 2220 1486 2166 1534.87 2123.47 1492 2172.9 1438.87"/>
      <polygon class="cls-1" points="2166 1651 2171.73 1714.6 2256 1712 2248.8 1651 2166 1651"/>
      <polygon class="cls-1" points="2175 1734 2259.47 1734 2264.8 1824 2180.53 1822.87 2175 1734"/>
      <polygon class="cls-1" points="2113.33 1375.4 2059.1 1436.2 2113.33 1489 2166 1432.2 2113.33 1375.4"/>
      <polygon class="cls-1" points="2115 1501 2044 1577 2044 1589 2155 1612 2159 1543 2115 1501"/>
      <polygon class="cls-1" points="2044 1600 2048 1660 2159 1668.2 2157 1620 2044 1600"/>
      <polygon class="cls-1" points="2050.93 1668.2 2054 1722 2163 1718 2163 1678.33 2050.93 1668.2"/>
      <polygon class="cls-1" points="2055 1738 2062.13 1824 2175 1826.07 2166 1738 2055 1738"/>
      <polygon class="cls-1" points="2055 1442 2106.93 1492 2036 1572 2036 1587.13 1990.7 1580.46 2004.53 1501 2055 1442"/>
      <polygon class="cls-1" points="1988.53 1587.13 2034 1597 2039 1659 1982 1654 1988.53 1587.13"/>
      <polygon class="cls-1" points="1982 1661.8 2039 1668.2 2044 1722 1974.67 1722 1982 1661.8"/>
      <polygon class="cls-1" points="1974.67 1740.73 2048.82 1740.73 2050.93 1826.07 1982 1824 1974.67 1740.73"/>
      <polygon class="cls-1" points="1990.7 1380.2 1942 1436 1996 1492 2044 1436.1 1990.7 1380.2"/>
      <polygon class="cls-1" points="1935 1444.73 1990.7 1496.47 1978 1579 1834 1548 1837 1538 1935 1444.73"/>
      <polygon class="cls-1" points="1834 1558.87 1905 1574 1895 1644 1821 1637 1834 1558.87"/>
      <polygon class="cls-1" points="1912.35 1574.87 1974.67 1587.13 1969 1653 1902.67 1644 1912.35 1574.87"/>
      <polygon class="cls-1" points="1821 1644 1892.53 1653 1886 1718 1809 1712 1821 1644"/>
      <polygon class="cls-1" points="1902.67 1653 1968.27 1659 1964.53 1722 1892.53 1722 1902.67 1653"/>
      <polygon class="cls-1" points="1892.53 1735.93 1962.4 1740.73 1968.27 1824 1892.53 1824 1892.53 1735.93"/>
      <polygon class="cls-1" points="1809 1732.2 1880.27 1735.93 1882.4 1824 1799.2 1824 1809 1732.2"/>
      <polygon class="cls-1" points="1985 1375 1935 1431.93 1881 1375 1927 1320 1985 1375"/>
      <polygon class="cls-1" points="1871 1266 1920.27 1312 1874.4 1367 1828 1320 1871 1266"/>
      <polygon class="cls-1" points="1822.35 1329.2 1867.1 1372.73 1810.93 1431.93 1769 1388 1822.35 1329.2"/>
      <polygon class="cls-1" points="1765.6 1401.5 1803.47 1442 1772.55 1474.07 1745 1455 1765.6 1401.5"/>
      <polygon class="cls-1" points="1871 1380 1929.33 1437.78 1874.13 1492 1815 1437.78 1871 1380"/>
      <polygon class="cls-1" points="1745 1464.47 1765.6 1478.33 1736.27 1514.57 1724 1511.87 1745 1464.47"/>
      <polygon class="cls-1" points="1809 1444.73 1745 1514.57 1828 1547 1828 1534.87 1867.1 1495.87 1809 1444.73"/>
      <polygon class="cls-1" points="1724 1521 1753 1531 1738.5 1623.07 1690.4 1613.93 1724 1521"/>
      <polygon class="cls-1" points="1761 1532 1826.4 1558.87 1813 1635 1744.8 1627.67 1761 1532"/>
      <polygon class="cls-1" points="1690.4 1623.07 1733 1632 1724 1700.2 1665 1693 1690.4 1623.07"/>
      <polygon class="cls-1" points="1744.8 1638.87 1809 1644 1799.2 1709.8 1733 1702.87 1744.8 1638.87"/>
      <polygon class="cls-1" points="1660.53 1709.8 1721.7 1718 1713.33 1824 1638.13 1824 1660.53 1709.8"/>
      <polygon class="cls-1" points="1733 1722 1795 1728.47 1792.8 1824 1724 1824 1733 1722"/>
      <polygon class="cls-1" points="1683 1420 1737 1458 1719 1510.33 1651.2 1484.2 1683 1420"/>
      <polygon class="cls-1" points="1648 1493 1715 1518 1656 1691 1585 1668 1648 1493"/>
      <polygon class="cls-1" points="1591.73 1691 1655.73 1709.8 1632 1813 1559 1789 1591.73 1691"/>
      <polygon class="cls-1" points="1559 1798.33 1623 1818 1621.07 1824 1549.6 1824 1559 1798.33"/>
      <polygon class="cls-1" points="1622 1375 1677 1414 1646 1480 1578.93 1450 1622 1375"/>
      <polygon class="cls-1" points="1578.93 1461.8 1642.4 1493 1621 1542 1554.4 1514.57 1578.93 1461.8"/>
      <polygon class="cls-1" points="1550 1524 1617 1551 1598.4 1602.07 1532.53 1572.03 1550 1524"/>
      <polygon class="cls-1" points="1528.8 1583.5 1595 1610 1578.93 1666.07 1509 1642 1528.8 1583.5"/>
      <polygon class="cls-1" points="1503.2 1661.63 1581 1687 1552 1789.8 1478 1761 1503.2 1661.63"/>
      <polygon class="cls-1" points="1475 1770 1462.13 1824 1539.47 1824 1549.6 1798.33 1475 1770"/>
      <polygon class="cls-1" points="1552 1327.93 1612.53 1369 1574.77 1446.87 1518 1417 1552 1327.93"/>
      <polygon class="cls-1" points="1515 1424 1565.27 1450.6 1547 1510 1488 1488 1515 1424"/>
      <polygon class="cls-1" points="1488 1497.53 1543 1520 1526.63 1570.6 1467 1546 1488 1497.53"/>
      <polygon class="cls-1" points="1462.13 1554.07 1522 1579 1503 1640 1439 1618 1462.13 1554.07"/>
      <polygon class="cls-1" points="1432 1636 1496 1656 1472 1758 1402 1721 1432 1636"/>
      <polygon class="cls-1" points="1402 1732.2 1467 1766.9 1459 1804 1389 1777 1402 1732.2"/>
      <polygon class="cls-1" points="1389 1789.8 1454.13 1813 1449 1824 1377.33 1824 1389 1789.8"/>
      <polygon class="cls-1" points="1539.47 1321 1517.75 1302.87 1431 1376 1505 1411.13 1539.47 1321"/>
      <polygon class="cls-1" points="1426 1384 1410 1454 1477 1482 1500 1419 1426 1384"/>
      <polygon class="cls-1" points="1407.73 1461.8 1475 1493 1455 1542 1392 1514 1407.73 1461.8"/>
      <polygon class="cls-1" points="1389 1524 1453 1548 1428 1611.13 1362 1593 1389 1524"/>
      <polygon class="cls-1" points="1353 1608 1421 1632 1392 1719.4 1323 1683 1353 1608"/>
      <polygon class="cls-1" points="1323 1691.67 1302 1743 1377.33 1774.87 1389 1725.72 1323 1691.67"/>
      <polygon class="cls-1" points="1297 1753 1268.53 1824 1364.53 1824 1375 1782 1297 1753"/>
      <polygon class="cls-1" points="1417.87 1384 1382 1426.6 1403 1450 1417.87 1384"/>
      <polygon class="cls-1" points="1372 1439.93 1399.93 1457.53 1385.97 1510.87 1327 1487 1372 1439.93"/>
      <polygon class="cls-1" points="1323 1492.73 1277.6 1542 1354 1591 1382 1518.33 1323 1492.73"/>
      <polygon class="cls-1" points="1263 1558 1213.6 1611.13 1317 1678 1345.5 1608 1263 1558"/>
      <polygon class="cls-1" points="1205.6 1618 1258 1653 1233.87 1719.4 1175.2 1691.67 1205.6 1618"/>
      <polygon class="cls-1" points="1268.53 1658.07 1313 1687 1295 1741 1239.73 1719.4 1268.53 1658.07"/>
      <polygon class="cls-1" points="1170.93 1699.53 1194 1710 1180 1810 1133 1784 1170.93 1699.53"/>
      <polygon class="cls-1" points="1203 1714 1289 1747 1261.07 1824 1239.73 1824 1186.93 1810 1203 1714"/>
      <polygon class="cls-1" points="1133 1792.47 1175.2 1815.93 1172 1824 1115.47 1824 1133 1792.47"/>
      <polygon class="cls-1" points="1184 1818 1184 1824 1216.6 1824 1184 1818"/>
      <polygon class="cls-1" points="1313 1282.07 1258 1325 1313 1374.87 1363.47 1328.47 1313 1282.07"/>
      <polygon class="cls-1" points="1372 1338.6 1323 1388.73 1372 1425 1417.87 1374.87 1372 1338.6"/>
      <polygon class="cls-1" points="1317.33 1394.07 1363.47 1435.13 1320.27 1482 1274.4 1433 1317.33 1394.07"/>
      <polygon class="cls-1" points="1267.47 1439.93 1315 1488 1270 1538 1215.73 1488.97 1267.47 1439.93"/>
      <polygon class="cls-1" points="1202 1503.4 1256 1552 1204.53 1608 1143.2 1567.57 1202 1503.4"/>
      <polygon class="cls-1" points="1141 1575 1199.6 1611.67 1167 1691 1105.33 1668.7 1141 1575"/>
      <polygon class="cls-1" points="1105.33 1675.67 1163.5 1699.53 1128 1781 1070.13 1754.77 1105.33 1675.67"/>
      <polygon class="cls-1" points="1065 1760 1047 1806 1113.33 1808.23 1123 1789 1065 1760"/>
      <polygon class="cls-1" points="1047 1815.93 1042.93 1824 1108 1824 1113.33 1815.93 1047 1815.93"/>
      <polygon class="cls-1" points="1249.87 1335.4 1310.73 1386.6 1267 1425 1213.6 1372.73 1249.87 1335.4"/>
      <polygon class="cls-1" points="1202 1377 1262.17 1433.53 1211 1485 1156.53 1425 1202 1377"/>
      <polygon class="cls-1" points="1146 1435 1197 1496 1136 1561 1076 1530 1146 1435"/>
      <polygon class="cls-1" points="1070.13 1538 1133 1568.47 1097.87 1663.7 1041.33 1633 1070.13 1538"/>
      <polygon class="cls-1" points="1063 1744 1094.13 1675.67 1034 1639 999.73 1714 1063 1744"/>
      <polygon class="cls-1" points="999.73 1723.67 1060 1754.77 1038.67 1808.23 967 1805 999.73 1723.67"/>
      <polygon class="cls-1" points="965 1813 1036.53 1813 1032.27 1824 961.87 1824 965 1813"/>
      <polygon class="cls-1" points="1192.93 1287.93 1244.53 1328.47 1205 1365 1160.27 1321 1192.93 1287.93"/>
      <polygon class="cls-1" points="1152 1328 1197 1369.53 1152 1417 1110 1368 1152 1328"/>
      <polygon class="cls-1" points="1096.8 1380.2 1140.53 1431 1099 1482 1037.07 1431.1 1096.8 1380.2"/>
      <polygon class="cls-1" points="1032 1437 1002 1506 1069 1527 1094.13 1488.97 1032 1437"/>
      <polygon class="cls-1" points="999.73 1515.13 1060 1533.8 1034 1629 959 1589 999.73 1515.13"/>
      <polygon class="cls-1" points="955 1595 1028 1633 995 1712 924 1673 955 1595"/>
      <polygon class="cls-1" points="921 1682 991 1717 956 1808.23 882.4 1760 921 1682"/>
      <polygon class="cls-1" points="879 1770 936.7 1805.8 876 1802 879 1770"/>
      <polygon class="cls-1" points="876 1808.23 949.6 1813 946.93 1824 876 1824 876 1808.23"/>
      <polygon class="cls-1" points="1128.93 1233 1097 1262 1151 1311 1186 1280 1128.93 1233"/>
      <polygon class="cls-1" points="1091 1269 1141.5 1316.2 1102 1357 1048.07 1304.47 1091 1269"/>
      <polygon class="cls-1" points="1053.6 1335.4 1086 1368 1024.8 1425 987 1392 1053.6 1335.4"/>
      <polygon class="cls-1" points="987 1406.33 1020.53 1431 989.6 1503.4 940.53 1488.97 987 1406.33"/>
      <polygon class="cls-1" points="907 1492 980.53 1510.33 957 1569 885.6 1530.5 907 1492"/>
      <polygon class="cls-1" points="882.4 1538 950 1576 904.27 1691.5 820 1647 882.4 1538"/>
      <polygon class="cls-1" points="820 1656 896 1699 873 1754 817 1699 820 1656"/>
      <polygon class="cls-1" points="817 1707.13 799 1797 863 1799 869.6 1760 817 1707.13"/>
      <polygon class="cls-1" points="796 1805.8 861.6 1808.23 861.6 1824 796 1824 796 1805.8"/>
      <polygon class="cls-1" points="1076.5 1180.73 1048.07 1217 1088.8 1254.33 1122.4 1223.07 1076.5 1180.73"/>
      <polygon class="cls-1" points="1045.07 1223.07 1085.23 1258.6 1045.07 1299.67 1011 1265 1045.07 1223.07"/>
      <polygon class="cls-1" points="1002 1283.13 1044 1324 981 1387 948 1361 1002 1283.13"/>
      <polygon class="cls-1" points="1032 1136 1070 1175 1044 1209.53 1009 1178 1032 1136"/>
      <polygon class="cls-1" points="1002 1186.07 1037 1218 1005.6 1261.37 976.27 1233 1002 1186.07"/>
      <polygon class="cls-1" points="966 1250 996 1277 944 1360 910 1333 966 1250"/>
      <polygon class="cls-1" points="907 1340 938 1366 878 1460 838 1428 907 1340"/>
      <polygon class="cls-1" points="945 1371 980.53 1398.33 936 1488 910 1482 885 1462.87 945 1371"/>
      <polygon class="cls-1" points="830.67 1435 872 1466 847 1508 802.93 1471.5 830.67 1435"/>
      <polygon class="cls-1" points="876.53 1471.5 900.53 1488 876.53 1533.27 851 1512 876.53 1471.5"/>
      <polygon class="cls-1" points="847 1521 869.6 1538 838 1595 813.07 1572.07 847 1521"/>
      <polygon class="cls-1" points="799 1480.47 838 1512.47 809.33 1569 767.73 1524.73 799 1480.47"/>
      <polygon class="cls-1" points="762.4 1533.27 806 1577 762.4 1641 716 1598 762.4 1533.27"/>
      <polygon class="cls-1" points="813.07 1580.2 834.3 1597.8 810 1633 810 1691.5 767.73 1649.53 813.07 1580.2"/>
      <polygon class="cls-1" points="713 1605 703 1631 737.87 1631 713 1605"/>
      <polygon class="cls-1" points="700 1641 746 1638 758 1650 742.13 1707.13 675.47 1707.13 700 1641"/>
      <polygon class="cls-1" points="761 1656 749.6 1707.13 809 1707 809 1701.8 761 1656"/>
      <polygon class="cls-1" points="746 1717 806 1717 790 1795 724.53 1795 746 1717"/>
      <polygon class="cls-1" points="720.43 1803.13 789.6 1805.8 785.87 1824 716 1824 720.43 1803.13"/>
      <polygon class="cls-1" points="675.47 1717 737.87 1717 716.73 1790.87 648 1791 675.47 1717"/>
      <polygon class="cls-1" points="643.47 1795 712.27 1799 705.87 1824 635.47 1824 643.47 1795"/>
      <polygon class="cls-1" points="942 1060 919 1104 996 1170.07 1025 1127 942 1060"/>
      <polygon class="cls-1" points="915 1110 889 1160 967.2 1223.72 993 1176 915 1110"/>
      <polygon class="cls-1" points="875 1175 900 1196 838 1274.6 814.13 1254.33 875 1175"/>
      <polygon class="cls-1" points="910 1201.53 958 1241 900 1325.27 842.4 1274.6 910 1201.53"/>
      <polygon class="cls-1" points="852 1297 896 1331 830 1422 788.53 1380.2 852 1297"/>
      <polygon class="cls-1" points="808.8 1261.37 845 1291 782 1378 745.33 1340 808.8 1261.37"/>
      <polygon class="cls-1" points="782.13 1387 826.4 1429.5 795.17 1465.53 756.53 1429.5 782.13 1387"/>
      <polygon class="cls-1" points="740 1348 778 1383 751.2 1422 708.53 1387 740 1348"/>
      <polygon class="cls-1" points="703 1393.53 743.27 1426.27 711 1474 671.73 1433.77 703 1393.53"/>
      <polygon class="cls-1" points="749.6 1435 791.47 1471.5 761 1521 716 1478 749.6 1435"/>
      <polygon class="cls-1" points="665 1438 705.33 1478 658 1545 612.53 1502.38 665 1438"/>
      <polygon class="cls-1" points="711 1484 753.73 1524.73 708.53 1587.13 665 1550 711 1484"/>
      <polygon class="cls-1" points="608 1511 595 1591 698.4 1595 608 1511"/>
      <polygon class="cls-1" points="590 1608 703 1608 668.53 1707.13 574.13 1705 590 1608"/>
      <polygon class="cls-1" points="574.13 1710.33 667 1713 641 1786 559.2 1786 574.13 1710.33"/>
      <polygon class="cls-1" points="559.2 1793 631.73 1795 622.13 1824 553.33 1824 559.2 1793"/>
      <polygon class="cls-1" points="873 1006 839 1038 912 1099 934.67 1054.5 873 1006"/>
      <polygon class="cls-1" points="833 1044.73 869.97 1076.2 842.4 1125.8 795.17 1082.6 833 1044.73"/>
      <polygon class="cls-1" points="877 1080 906.93 1104 882 1157 848 1128 877 1080"/>
      <polygon class="cls-1" points="779.47 1099 823 1130 758 1211 706.4 1170.07 779.47 1099"/>
      <polygon class="cls-1" points="832.57 1138.07 869.97 1170.07 810 1253 764.7 1213.8 832.57 1138.07"/>
      <polygon class="cls-1" points="701.6 1175 751 1217 691 1294 635 1245 701.6 1175"/>
      <polygon class="cls-1" points="758.67 1224.8 800.8 1253 738 1335 697 1302 758.67 1224.8"/>
      <polygon class="cls-1" points="638.67 1261.37 686 1301 654.13 1340 595 1288 630.67 1279.9 638.67 1261.37"/>
      <polygon class="cls-1" points="693 1304.47 733.07 1340 704 1381 660 1346 693 1304.47"/>
      <polygon class="cls-1" points="583 1289 646.7 1345 618.93 1385 563 1329 583 1289"/>
      <polygon class="cls-1" points="654 1351 696.53 1387 665 1426.27 624.8 1388.63 654 1351"/>
      <polygon class="cls-1" points="558.13 1337 612.53 1388.63 563 1455.4 515 1422 515 1403.67 558.13 1337"/>
      <polygon class="cls-1" points="618 1396 660 1433.77 607 1499 567 1460 618 1396"/>
      <polygon class="cls-1" points="515 1431.4 515 1499 597.07 1499 563 1465.2 515 1431.4"/>
      <polygon class="cls-1" points="515 1511 600.8 1511 585.33 1595 515 1595 515 1511"/>
      <polygon class="cls-1" points="515 1608 583.2 1608 564 1703 515 1703 515 1608"/>
      <polygon class="cls-1" points="515 1712.47 564.53 1712.47 549.1 1782.33 515 1782.33 515 1712.47"/>
      <polygon class="cls-1" points="515 1791 549.1 1791 543.73 1824 515 1824 515 1791"/>
      <polygon class="cls-1" points="823 965.27 866 1000 835 1034 788.53 999.63 823 965.27"/>
      <polygon class="cls-1" points="782 1003 827.27 1037.27 788.53 1080 738 1039 782 1003"/>
      <polygon class="cls-1" points="725 1052.5 773 1091 729 1138 672.27 1095.25 725 1052.5"/>
      <polygon class="cls-1" points="663.73 1099 720 1143 699 1164 642.4 1118.5 663.73 1099"/>
      <polygon class="cls-1" points="635 1116.2 693 1172.2 630 1242 559.2 1179.1 635 1116.2"/>
      <polygon class="cls-1" points="549.07 1179.1 613 1238 555 1257 515 1218.05 515 1205.27 549.07 1179.1"/>
      <polygon class="cls-1" points="515 1231.93 551.73 1261.37 551.73 1271.4 515 1271.4 515 1231.93"/>
      <polygon class="cls-1" points="515 1279.9 553.87 1279.9 573.6 1289 556 1323 515 1279.9"/>
      <polygon class="cls-1" points="515 1294 551.73 1329.53 539.47 1351 515 1332.73 515 1294"/>
      <polygon class="cls-1" points="515 1342.73 533.37 1357.27 515 1388.63 515 1342.73"/>
      <polygon class="cls-4" points="560.8 1261.37 610 1247 624.8 1247 631.91 1251.67 624.8 1271.4 582 1284 564 1274 560.8 1261.37"/>
      <polygon class="cls-1" points="769.75 923.31 816 959 782.63 991.58 738 957.44 769.75 923.31"/>
      <polygon class="cls-1" points="730 961 775 996 731.82 1034 685.24 997.5 730 961"/>
      <polygon class="cls-1" points="670 1007 720 1047.04 636 1110 590 1068 670 1007"/>
      <polygon class="cls-1" points="584 1073 630 1112 551 1172 515 1138 515 1122.5 584 1073"/>
      <polygon class="cls-1" points="515 1150.51 542.67 1175 515 1199.22 515 1150.51"/>
      <polygon class="cls-1" points="718 880 766 918 730.12 950.33 682.4 914 718 880"/>
      <polygon class="cls-1" points="673.87 918 721.16 953 680.62 991.58 628.36 950.33 673.87 918"/>
      <polygon class="cls-1" points="614 963 665 1004 585 1062 539 1021 614 963"/>
      <polygon class="cls-1" points="530 1023 577 1066 515 1111.76 515 1034 530 1023"/>
      <polygon class="cls-1" points="644 821 709 877.5 674.76 906.6 617 860 644 821"/>
      <polygon class="cls-1" points="612 866.78 666.76 911 622 946 578.22 914 612 866.78"/>
      <polygon class="cls-1" points="543 907 608 957 531 1015 515 1001.18 515 927.93 543 907"/>
      <polygon class="cls-1" points="515 1007 525 1016 515 1026.78 515 1007"/>
      <polygon class="cls-1" points="515 881 536 901 515 918 515 881"/>
      <g id="Capa_3" data-name="Capa 3">
        <path class="cls-15" d="m2574.99,484.7c32.31,16.99,58.02,32.21,76.01,43.3,29.39,18.12,62.26,31.15,89,53,3.51,2.87,14.03,11.73,30,15,8.7,1.78,15.56,1.19,18,1,20.33-1.62-3.47,3.07,81,0,76.99-2.8,85.87-6.3,117-2,15.82,2.18,30.7,5.46,47,13,19.52,9.03,33.39,20.62,42,29v-29c-7.81-7.63-20.35-18.09-38-26-18.54-8.3-34.51-10.12-44-11-49.88-4.64-93.93.27-127,2-22.51,1.18-54.66,1.65-94-2-62.03-35.49-124.05-70.99-186.08-106.48-.21-.12-.43-.23-.68-.34-.41-.18-.83-.34-1.27-.46-97.36-26.57-194.71-53.15-292.07-79.72h-53.91c112.33,33.57,224.66,67.14,336.99,100.7Z"/>
        <polygon class="cls-15" points="2059.1 384 2129.37 444 2167.73 463.4 2197 463.4 2179 448 2138 434 2082.4 384 2059.1 384"/>
        <path class="cls-15" d="m2111.2,384h42.4l59.4,58,19-1.75v18.75l62.57,51.5,70.2,50.15,45.2,28.44,71.17,39.9c45.95,24.67,91.91,49.34,137.86,74.01,17.67,11.67,35.33,23.33,53,35,18.76,11.58,33.27,22.71,43.35,31.05,25.78,21.33,49.34,40.88,63.65,73.95,1.14,2.64,6.04,14.17,10,32,4.9,22.08,10.23,62.3-3.22,115.58-4.1,16.78-9.79,35.5-17.78,55.42-5.15,12.85-10.62,24.61-16.1,35.27-9.71,22.55-19.42,45.1-29.13,67.65l25.18,87.16,46.05,32.93-5,22-71-59-19-45.93-5,26.67-4,7.27v20.3l-10,18.7-18,47v53.93l-5,78.07v61.67l-5.53,17.07-4.47,96.27,20.47,211h-16l-4.47-54.07-3-44.13-6-56.8-3-102,5.8-27.87v-75.3l-17.22,24.14-7.14-19.97,5.16-7.44v-32.56l9.4-7,6-54.67v-61.67l14.47-50.67,9.5-27.4c2.34-9.87,4.69-19.73,7.03-29.6l16-49.75c-2.31,3.89-11.09,17.64-29,23.75-13.87,4.73-25.85,2.37-30.73,1.12-40.09-26.04-80.18-52.08-120.27-78.12l16.27-1,50.73,33c6.67,2.67,13.33,5.33,20,8,2.03,2.32,18.17,20.17,44,19,22.93-1.04,36.65-16.3,39-19,6.67-8,13.33-16,20-24,4.67-6.76,9.33-13.52,14-20.28l52.27-126.59c7.4-45.6-2.66-75.86-10.27-92.13-16.36-34.99-48.13-56.8-111-99-28.39-19.06-52.89-33.66-70.39-43.64-61.76-38.24-123.52-76.48-185.28-114.73l-76.92-47.63c-23.25-19.85-46.74-40.51-70.4-62-44.45-40.38-86.01-80.52-124.8-120Z"/>
      </g>
    </g>
  </g>
  <g id="Capa_5" data-name="Capa 5">
    <path class="cls-6" d="m1961,1140c-11.67-15.67-23.33-31.33-35-47-3.5-23.91,14.16-44.03,33-45,19.59-1.01,39.83,18.7,37.21,43.78-11.74,16.07-23.47,32.15-35.21,48.22Z"/>
    <path class="cls-6" d="m1056.14,829.31c-11.67-15.67-23.33-31.33-35-47-3.5-23.91,14.16-44.03,33-45,19.59-1.01,39.83,18.7,37.21,43.78-11.74,16.07-23.47,32.15-35.21,48.22Z"/>
    <path class="cls-6" d="m2914.34,1237.91c-11.67-15.67-23.33-31.33-35-47-3.5-23.91,14.16-44.03,33-45,19.59-1.01,39.83,18.7,37.21,43.78-11.74,16.07-23.47,32.15-35.21,48.22Z"/>
    <path class="cls-6" d="m1319.27,1523.84c-11.67-15.67-23.33-31.33-35-47-3.5-23.91,14.16-44.03,33-45,19.59-1.01,39.83,18.7,37.21,43.78-11.74,16.07-23.47,32.15-35.21,48.22Z"/>
    <path class="cls-6" d="m1925.74,668.91c-11.67-15.67-23.33-31.33-35-47-3.5-23.91,14.16-44.03,33-45,19.59-1.01,39.83,18.7,37.21,43.78-11.74,16.07-23.47,32.15-35.21,48.22Z"/>
    <path class="cls-6" d="m2279.74,1534.91c-11.67-15.67-23.33-31.33-35-47-3.5-23.91,14.16-44.03,33-45,19.59-1.01,39.83,18.7,37.21,43.78-11.74,16.07-23.47,32.15-35.21,48.22Z"/>
    <g id="Capa_7" data-name="Capa 7">
      <path class="cls-16" d="m1054,780.24v25.9h.87v-26.03c-.04-.45-.18-.75-.31-.84-.21-.14-.47.25-.55.97Z"/>
      <path class="cls-2" d="m1054.87,792.69c.98-.58,1.85-1.09,2.59-1.52.49-.28,1.1-.64,1.94-1.07.06-.03.12-.06.2-.1,1.05-.53,2.28-1.16,2.4-.99.13.17-.84,1.22-2,2-.77.52-1.49.82-2,1-1.04.23-2.09.46-3.13.69Z"/>
      <path class="cls-5" d="m1342.6,1488.24h-48l5.28-4.15,2.4-4.8v-3.6h31.2v3.6l2.4,4.8c2.24,1.38,4.48,2.77,6.72,4.15Z"/>
      <g id="Capa_6" data-name="Capa 6">
        <path class="cls-10" d="m1946,1076c.5-8.19,5.49-14.29,11-15,5.9-.76,11.54,4.78,13.6,10,4.13,10.48-5.16,22.35-.6,26,1.16.93,2.81.99,3,1,3.92.11,6.63-4.37,7-5,.26,8.46-5.87,15.79-14,17-7.69,1.15-15.34-3.45-18-11-.67-7.67-1.33-15.33-2-23Z"/>
        <ellipse class="cls-5" cx="1953.5" cy="1072.5" rx="1.5" ry="2.5"/>
        <ellipse class="cls-5" cx="1962.5" cy="1072.5" rx="1.5" ry="2.5"/>
        <ellipse class="cls-5" cx="1958.5" cy="1078.5" rx="2.5" ry=".5"/>
        <path class="cls-11" d="m1057.48,781.64c-2.12-1.12-4.65-1.13-6.77-.03h0c-5.35,2.79-11.57-1.77-10.53-7.71.41-2.36-.36-4.77-2.07-6.45h0c-4.3-4.23-1.89-11.55,4.08-12.4h0c2.37-.33,4.43-1.82,5.49-3.96h0c2.69-5.4,10.4-5.37,13.05.05h0c1.05,2.15,3.09,3.65,5.46,4,5.96.89,8.32,8.23,3.98,12.43h0c-1.72,1.66-2.51,4.07-2.12,6.43h0c1,5.95-5.26,10.46-10.59,7.63Z"/>
        <circle class="cls-17" cx="1054" cy="766" r="10"/>
        <path class="cls-8" d="m2932,1186c0,9.39-9.63,17-21.5,17s-21.5-7.61-21.5-17,9.63-17,21.5-17c.42,0,.85,0,1.26.03,11.29.52,20.24,7.92,20.24,16.97Z"/>
        <polygon class="cls-8" points="2921 1163 2911.76 1169.03 2927.11 1175.21 2928.8 1169.11 2924.8 1169.11 2921 1163"/>
        <path class="cls-8" d="m2930,1185c4.17-1.59,8.34-3.18,12.51-4.77-1.5,1.18-4.44,3.85-5.41,7.91-.59,2.48-.24,4.61.16,6.01-2.4-2.05-4.79-4.1-7.19-6.14l-.08-3.01Z"/>
        <path class="cls-8" d="m2910.5,1201.71l7.5,5.29c1-1.33,2-2.67,3-4,2-.67,4-1.33,6-2-2-.67-4-1.33-6-2-3.5.9-7,1.81-10.5,2.71Z"/>
        <ellipse class="cls-5" cx="2896" cy="1181" rx="1" ry="2"/>
        <path class="cls-18" d="m2889.6,1190c2.29,1.34,5.45,2.9,9.4,4,9.73,2.71,17.99.92,22,0,2.79-.64,6.32-1.7,10.25-3.53-.68,1.7-1.94,4.2-4.25,6.53-6.16,6.23-14.61,6.05-17,6-2.36-.05-11.25-.24-17-7-1.86-2.19-2.85-4.42-3.4-6Z"/>
        <ellipse class="cls-7" cx="2898.5" cy="1185" rx="1.5" ry="1"/>
        <path class="cls-19" d="m2909,1186l2.72-1.63c1.38-.83,3.13-.74,4.42.22l.77.57c2.08,1.54,2.16,4.63.16,6.27h0c-1.1.9-2.59,1.15-3.93.65l-4.14-1.55"/>
        <path class="cls-8" d="m2891,1185c-.15-.14-1.64-1.5-3-1-.44.16-1.03.58-1,1,.04.53,1.06.86,1,1-.05.13-.85-.21-1,0-.15.22.34,1.03,1,1.29.87.35,2.07-.18,3-1.29v-1Z"/>
        <path class="cls-3" d="m1338.29,1462.73c0,3.53-.94,6.84-2.58,9.72-3.49,6.1-10.16,10.22-17.82,10.22-11.27,0-20.4-8.93-20.4-19.94s9.13-19.94,20.4-19.94,20.4,8.93,20.4,19.94Z"/>
        <path class="cls-5" d="m2253.33,1471.93v-5.6l26.4-9.07c8.76,2.91,17.51,5.82,26.27,8.73v6l-52.67-.07Z"/>
        <rect class="cls-5" x="2269.6" y="1471.93" width="6.4" height="23.07"/>
        <rect class="cls-5" x="2283.44" y="1471.89" width="6.4" height="23.07"/>
        <rect class="cls-5" x="2255.44" y="1471.89" width="6.4" height="23.07"/>
        <rect class="cls-5" x="2297.44" y="1472" width="6.4" height="23"/>
        <polygon class="cls-5" points="2253.33 1495 2306 1495 2306 1497 2306 1497 2253.33 1496.67 2253.33 1495"/>
        <path class="cls-13" d="m1904,608c2.33,6.33,4.67,12.67,7,19,10.83-.13,21.67-.26,32.5-.39l5.5-18.61h-45Z"/>
        <path class="cls-13" d="m1924,594h2.93v14h-2.93v-14Z"/>
        <polygon class="cls-9" points="1915 617 1915 617 1906.22 608 1908.18 608 1922.31 608 1915.98 615.8 1915 617"/>
        <polygon class="cls-14" points="1910 608 1917.14 614.37 1916.22 615.49 1907.91 608 1910 608 1910 608"/>
        <polygon class="cls-14" points="1912 608 1918.24 613.01 1919.02 612.05 1913.56 608 1912 608"/>
        <polygon class="cls-14" points="1916.73 608 1920.28 610.5 1921.09 609.5 1918.69 608 1916.73 608"/>
        <polygon class="cls-14" points="1913.9 615.88 1920.62 608 1919.24 608 1913 615 1913.9 615.88"/>
        <polygon class="cls-14" points="1912 613.92 1917.6 608 1916.29 608 1911.11 613.01 1912 613.92"/>
        <polygon class="cls-14" points="1910.06 611.94 1914.35 608 1913 608 1909.29 611.15 1910.06 611.94"/>
        <polygon class="cls-14" points="1908.02 609.84 1910.62 608 1909 608 1907.12 608.92 1908.02 609.84"/>
      </g>
    </g>
  </g>
</svg>